<svg width="500" height="159" viewBox="0 0 500 159" fill="none" xmlns="http://www.w3.org/2000/svg">
<g clip-path="url(#clip0)">
<path fill-rule="evenodd" clip-rule="evenodd" d="M77.9037 34.7054C54.0527 34.7054 34.7176 54.0405 34.7176 77.8915C34.7176 101.742 54.0527 121.078 77.9037 121.078C101.755 121.078 121.09 101.742 121.09 77.8915C121.09 54.0405 101.755 34.7054 77.9037 34.7054ZM0 77.8915C0 34.8665 34.8787 -0.012207 77.9037 -0.012207C120.929 -0.012207 155.807 34.8665 155.807 77.8915C155.807 120.916 120.929 155.795 77.9037 155.795C34.8787 155.795 0 120.916 0 77.8915Z" fill="#2B33FF"/>
<path d="M208.033 130.728H232.358V31.7334H208.033V130.728Z" fill="black"/>
<path d="M282.084 132.99C312.066 132.99 322.672 114.323 322.672 95.3726C322.672 76.4223 312.066 57.7548 282.084 57.7548C252.103 57.7548 241.638 76.4223 241.638 95.3726C241.638 114.464 252.103 132.99 282.084 132.99ZM265.963 95.3726C265.963 81.2306 270.488 76.7051 282.084 76.7051C293.681 76.7051 298.206 81.2306 298.206 95.3726C298.206 109.515 293.681 114.04 282.084 114.04C270.488 114.04 265.963 109.515 265.963 95.3726Z" fill="black"/>
<path d="M369.196 132.99C399.177 132.99 409.784 114.323 409.784 95.3726C409.784 76.4223 399.177 57.7548 369.196 57.7548C339.215 57.7548 328.75 76.4223 328.75 95.3726C328.75 114.464 339.215 132.99 369.196 132.99ZM353.074 95.3726C353.074 81.2306 357.6 76.7051 369.196 76.7051C380.793 76.7051 385.318 81.2306 385.318 95.3726C385.318 109.515 380.793 114.04 369.196 114.04C357.6 114.04 353.074 109.515 353.074 95.3726Z" fill="black"/>
<path d="M467.615 57.7548C455.594 57.7548 447.533 62.1388 442.725 69.6341V60.0175H418.401V159.012H442.725V120.828C447.533 128.465 455.594 132.99 467.615 132.99C490.808 132.99 500 115.171 500 95.514C500 75.1495 490.808 57.7548 467.615 57.7548ZM459.412 114.04C446.967 114.04 442.725 107.959 442.725 95.3726C442.725 82.7862 446.967 76.7051 459.412 76.7051C471.433 76.7051 475.676 82.2205 475.676 95.3726C475.676 108.525 471.433 114.04 459.412 114.04Z" fill="black"/>
</g>
<defs>
<clipPath id="clip0">
<rect width="500" height="159" fill="white"/>
</clipPath>
</defs>
</svg>
