<svg width="500" height="159" viewBox="0 0 500 159" fill="none" xmlns="http://www.w3.org/2000/svg">
<g clip-path="url(#clip0)">
<path fill-rule="evenodd" clip-rule="evenodd" d="M77.9037 34.7059C54.0527 34.7059 34.7176 54.041 34.7176 77.892C34.7176 101.743 54.0527 121.078 77.9037 121.078C101.755 121.078 121.09 101.743 121.09 77.892C121.09 54.041 101.755 34.7059 77.9037 34.7059ZM0 77.892C0 34.867 34.8787 -0.0117188 77.9037 -0.0117188C120.929 -0.0117188 155.807 34.867 155.807 77.892C155.807 120.917 120.929 155.796 77.9037 155.796C34.8787 155.796 0 120.917 0 77.892Z" fill="#2B33FF"/>
<path d="M208.033 130.728H232.358V31.7339H208.033V130.728Z" fill="white"/>
<path d="M282.084 132.991C312.066 132.991 322.672 114.323 322.672 95.3731C322.672 76.4228 312.066 57.7553 282.084 57.7553C252.103 57.7553 241.638 76.4228 241.638 95.3731C241.638 114.465 252.103 132.991 282.084 132.991ZM265.963 95.3731C265.963 81.2311 270.488 76.7056 282.084 76.7056C293.681 76.7056 298.206 81.2311 298.206 95.3731C298.206 109.515 293.681 114.041 282.084 114.041C270.488 114.041 265.963 109.515 265.963 95.3731Z" fill="white"/>
<path d="M369.196 132.991C399.177 132.991 409.784 114.323 409.784 95.3731C409.784 76.4228 399.177 57.7553 369.196 57.7553C339.215 57.7553 328.75 76.4228 328.75 95.3731C328.75 114.465 339.215 132.991 369.196 132.991ZM353.074 95.3731C353.074 81.2311 357.6 76.7056 369.196 76.7056C380.793 76.7056 385.318 81.2311 385.318 95.3731C385.318 109.515 380.793 114.041 369.196 114.041C357.6 114.041 353.074 109.515 353.074 95.3731Z" fill="white"/>
<path d="M467.615 57.7553C455.594 57.7553 447.533 62.1393 442.725 69.6346V60.018H418.401V159.012H442.725V120.829C447.533 128.465 455.594 132.991 467.615 132.991C490.808 132.991 500 115.172 500 95.5145C500 75.15 490.808 57.7553 467.615 57.7553ZM459.412 114.041C446.967 114.041 442.725 107.96 442.725 95.3731C442.725 82.7867 446.967 76.7056 459.412 76.7056C471.433 76.7056 475.676 82.221 475.676 95.3731C475.676 108.525 471.433 114.041 459.412 114.041Z" fill="white"/>
</g>
<defs>
<clipPath id="clip0">
<rect width="500" height="159" fill="white"/>
</clipPath>
</defs>
</svg>
